<mxfile host="app.diagrams.net" modified="2024-05-05T02:46:29.193Z" agent="Mozilla/5.0 (Windows NT 10.0; Win64; x64) AppleWebKit/537.36 (KHTML, like Gecko) Chrome/122.0.0.0 Safari/537.36 Edg/122.0.0.0" etag="d4dhEIcO2B8yCOodJ_yx" version="24.3.1" type="device">
  <diagram name="第 1 页" id="5haAY2H0CtC_D1WCI3pv">
    <mxGraphModel dx="1167" dy="679" grid="1" gridSize="10" guides="1" tooltips="1" connect="1" arrows="1" fold="1" page="1" pageScale="1" pageWidth="827" pageHeight="1169" math="0" shadow="0">
      <root>
        <mxCell id="0" />
        <mxCell id="1" parent="0" />
        <mxCell id="H4qOKfZ-VEspItQ3pSiD-2" value="" style="swimlane;startSize=0;" vertex="1" parent="1">
          <mxGeometry x="200" y="380" width="400" height="180" as="geometry">
            <mxRectangle x="120" y="240" width="50" height="40" as="alternateBounds" />
          </mxGeometry>
        </mxCell>
        <mxCell id="H4qOKfZ-VEspItQ3pSiD-15" style="edgeStyle=orthogonalEdgeStyle;rounded=0;orthogonalLoop=1;jettySize=auto;html=1;" edge="1" parent="H4qOKfZ-VEspItQ3pSiD-2" source="H4qOKfZ-VEspItQ3pSiD-4" target="H4qOKfZ-VEspItQ3pSiD-5">
          <mxGeometry relative="1" as="geometry" />
        </mxCell>
        <mxCell id="H4qOKfZ-VEspItQ3pSiD-4" value="&lt;font style=&quot;font-size: 20px;&quot;&gt;virt&lt;/font&gt;" style="rounded=0;whiteSpace=wrap;html=1;" vertex="1" parent="H4qOKfZ-VEspItQ3pSiD-2">
          <mxGeometry x="140" y="60" width="120" height="40" as="geometry" />
        </mxCell>
        <mxCell id="H4qOKfZ-VEspItQ3pSiD-5" value="&lt;font style=&quot;font-size: 20px;&quot;&gt;lite_executor&lt;/font&gt;" style="rounded=0;whiteSpace=wrap;html=1;" vertex="1" parent="H4qOKfZ-VEspItQ3pSiD-2">
          <mxGeometry x="120" y="120" width="160" height="40" as="geometry" />
        </mxCell>
        <mxCell id="H4qOKfZ-VEspItQ3pSiD-10" value="&lt;font style=&quot;font-size: 20px;&quot;&gt;QEMU&lt;/font&gt;" style="text;html=1;align=center;verticalAlign=middle;whiteSpace=wrap;rounded=0;" vertex="1" parent="H4qOKfZ-VEspItQ3pSiD-2">
          <mxGeometry x="20" y="20" width="60" height="20" as="geometry" />
        </mxCell>
        <mxCell id="H4qOKfZ-VEspItQ3pSiD-14" style="edgeStyle=orthogonalEdgeStyle;rounded=0;orthogonalLoop=1;jettySize=auto;html=1;entryX=0.5;entryY=0;entryDx=0;entryDy=0;" edge="1" parent="1" source="H4qOKfZ-VEspItQ3pSiD-3" target="H4qOKfZ-VEspItQ3pSiD-4">
          <mxGeometry relative="1" as="geometry" />
        </mxCell>
        <mxCell id="H4qOKfZ-VEspItQ3pSiD-3" value="" style="swimlane;startSize=0;" vertex="1" parent="1">
          <mxGeometry x="200" y="160" width="400" height="200" as="geometry">
            <mxRectangle x="120" y="240" width="50" height="40" as="alternateBounds" />
          </mxGeometry>
        </mxCell>
        <mxCell id="H4qOKfZ-VEspItQ3pSiD-6" value="&lt;font style=&quot;font-size: 20px;&quot;&gt;axtask&lt;/font&gt;" style="rounded=0;whiteSpace=wrap;html=1;" vertex="1" parent="H4qOKfZ-VEspItQ3pSiD-3">
          <mxGeometry x="40" y="110" width="120" height="40" as="geometry" />
        </mxCell>
        <mxCell id="H4qOKfZ-VEspItQ3pSiD-23" style="edgeStyle=orthogonalEdgeStyle;rounded=0;orthogonalLoop=1;jettySize=auto;html=1;exitX=0;exitY=0.5;exitDx=0;exitDy=0;entryX=1;entryY=0.5;entryDx=0;entryDy=0;dashed=1;" edge="1" parent="H4qOKfZ-VEspItQ3pSiD-3" source="H4qOKfZ-VEspItQ3pSiD-7" target="H4qOKfZ-VEspItQ3pSiD-6">
          <mxGeometry relative="1" as="geometry" />
        </mxCell>
        <mxCell id="H4qOKfZ-VEspItQ3pSiD-7" value="&lt;font style=&quot;font-size: 20px;&quot;&gt;axnet&lt;/font&gt;" style="rounded=0;whiteSpace=wrap;html=1;" vertex="1" parent="H4qOKfZ-VEspItQ3pSiD-3">
          <mxGeometry x="240" y="110" width="120" height="40" as="geometry" />
        </mxCell>
        <mxCell id="H4qOKfZ-VEspItQ3pSiD-16" style="edgeStyle=orthogonalEdgeStyle;rounded=0;orthogonalLoop=1;jettySize=auto;html=1;exitX=0.5;exitY=1;exitDx=0;exitDy=0;entryX=0.5;entryY=0;entryDx=0;entryDy=0;" edge="1" parent="H4qOKfZ-VEspItQ3pSiD-3">
          <mxGeometry relative="1" as="geometry">
            <mxPoint x="90" y="60" as="sourcePoint" />
            <mxPoint x="90" y="110" as="targetPoint" />
          </mxGeometry>
        </mxCell>
        <mxCell id="H4qOKfZ-VEspItQ3pSiD-20" style="rounded=0;orthogonalLoop=1;jettySize=auto;html=1;exitX=0.579;exitY=1.004;exitDx=0;exitDy=0;entryX=0.398;entryY=-0.004;entryDx=0;entryDy=0;exitPerimeter=0;entryPerimeter=0;" edge="1" parent="H4qOKfZ-VEspItQ3pSiD-3" source="H4qOKfZ-VEspItQ3pSiD-8" target="H4qOKfZ-VEspItQ3pSiD-7">
          <mxGeometry relative="1" as="geometry" />
        </mxCell>
        <mxCell id="H4qOKfZ-VEspItQ3pSiD-8" value="&lt;font style=&quot;font-size: 20px;&quot;&gt;axruntime&lt;/font&gt;" style="rounded=0;whiteSpace=wrap;html=1;" vertex="1" parent="H4qOKfZ-VEspItQ3pSiD-3">
          <mxGeometry x="40" y="20" width="120" height="40" as="geometry" />
        </mxCell>
        <mxCell id="H4qOKfZ-VEspItQ3pSiD-18" style="edgeStyle=orthogonalEdgeStyle;rounded=0;orthogonalLoop=1;jettySize=auto;html=1;exitX=0.5;exitY=1;exitDx=0;exitDy=0;" edge="1" parent="H4qOKfZ-VEspItQ3pSiD-3">
          <mxGeometry relative="1" as="geometry">
            <mxPoint x="310" y="110" as="targetPoint" />
            <mxPoint x="310" y="60" as="sourcePoint" />
          </mxGeometry>
        </mxCell>
        <mxCell id="H4qOKfZ-VEspItQ3pSiD-21" style="rounded=0;orthogonalLoop=1;jettySize=auto;html=1;exitX=0.417;exitY=1.004;exitDx=0;exitDy=0;entryX=0.583;entryY=0;entryDx=0;entryDy=0;exitPerimeter=0;entryPerimeter=0;" edge="1" parent="H4qOKfZ-VEspItQ3pSiD-3" source="H4qOKfZ-VEspItQ3pSiD-9" target="H4qOKfZ-VEspItQ3pSiD-6">
          <mxGeometry relative="1" as="geometry" />
        </mxCell>
        <mxCell id="H4qOKfZ-VEspItQ3pSiD-9" value="&lt;span style=&quot;font-size: 20px;&quot;&gt;axapi&lt;/span&gt;" style="rounded=0;whiteSpace=wrap;html=1;" vertex="1" parent="H4qOKfZ-VEspItQ3pSiD-3">
          <mxGeometry x="240" y="20" width="120" height="40" as="geometry" />
        </mxCell>
        <mxCell id="H4qOKfZ-VEspItQ3pSiD-11" value="&lt;font style=&quot;font-size: 20px;&quot;&gt;ArceOS&lt;/font&gt;" style="text;html=1;align=center;verticalAlign=middle;whiteSpace=wrap;rounded=0;" vertex="1" parent="H4qOKfZ-VEspItQ3pSiD-3">
          <mxGeometry x="20" y="160" width="70" height="20" as="geometry" />
        </mxCell>
        <mxCell id="H4qOKfZ-VEspItQ3pSiD-22" style="edgeStyle=orthogonalEdgeStyle;rounded=0;orthogonalLoop=1;jettySize=auto;html=1;exitX=0.5;exitY=1;exitDx=0;exitDy=0;entryX=0;entryY=0.5;entryDx=0;entryDy=0;dashed=1;" edge="1" parent="1" source="H4qOKfZ-VEspItQ3pSiD-6" target="H4qOKfZ-VEspItQ3pSiD-5">
          <mxGeometry relative="1" as="geometry" />
        </mxCell>
      </root>
    </mxGraphModel>
  </diagram>
</mxfile>
